<?xml version="1.0" encoding="UTF-8"?>
<svg xmlns="http://www.w3.org/2000/svg" xmlns:xlink="http://www.w3.org/1999/xlink" width="64px" height="64px" viewBox="0 0 64 64" version="1.1">
<defs>
<radialGradient id="radial0" gradientUnits="userSpaceOnUse" cx="0" cy="0" fx="0" fy="0" r="1" gradientTransform="matrix(29.000032,-41.999977,41.999977,29.000032,24,46)">
<stop offset="0" style="stop-color:rgb(69.411765%,20.784314%,53.72549%);stop-opacity:1;"/>
<stop offset="0.79309" style="stop-color:rgb(77.647059%,18.431373%,58.039216%);stop-opacity:1;"/>
<stop offset="1" style="stop-color:rgb(54.117647%,22.745098%,78.431373%);stop-opacity:1;"/>
</radialGradient>
<radialGradient id="radial1" gradientUnits="userSpaceOnUse" cx="0" cy="0" fx="0" fy="0" r="1" gradientTransform="matrix(18.999964,-40.999913,40.999913,18.999964,22,62)">
<stop offset="0" style="stop-color:rgb(87.843137%,90.980392%,71.764706%);stop-opacity:1;"/>
<stop offset="0.444662" style="stop-color:rgb(98.431373%,54.117647%,18.039216%);stop-opacity:1;"/>
<stop offset="0.71474" style="stop-color:rgb(88.627451%,25.882353%,36.078431%);stop-opacity:1;"/>
<stop offset="1" style="stop-color:rgb(88.627451%,25.882353%,36.078431%);stop-opacity:0;"/>
</radialGradient>
<radialGradient id="radial2" gradientUnits="userSpaceOnUse" cx="0" cy="0" fx="0" fy="0" r="1" gradientTransform="matrix(77.000053,-11.000005,2.352787,16.469513,1.000004,6)">
<stop offset="0.156701" style="stop-color:rgb(25.098039%,41.568627%,86.27451%);stop-opacity:1;"/>
<stop offset="0.467799" style="stop-color:rgb(41.568627%,27.058824%,74.509804%);stop-opacity:1;"/>
<stop offset="1" style="stop-color:rgb(41.568627%,27.058824%,74.509804%);stop-opacity:0;"/>
</radialGradient>
</defs>
<g id="surface1">
<path style=" stroke:none;fill-rule:nonzero;fill:url(#radial0);" d="M 16 4 L 48 4 C 54.628906 4 60 9.371094 60 16 L 60 48 C 60 54.628906 54.628906 60 48 60 L 16 60 C 9.371094 60 4 54.628906 4 48 L 4 16 C 4 9.371094 9.371094 4 16 4 Z M 16 4 "/>
<path style=" stroke:none;fill-rule:nonzero;fill:url(#radial1);" d="M 16 4 L 48 4 C 54.628906 4 60 9.371094 60 16 L 60 48 C 60 54.628906 54.628906 60 48 60 L 16 60 C 9.371094 60 4 54.628906 4 48 L 4 16 C 4 9.371094 9.371094 4 16 4 Z M 16 4 "/>
<path style=" stroke:none;fill-rule:nonzero;fill:url(#radial2);" d="M 16 4 L 48 4 C 54.628906 4 60 9.371094 60 16 L 60 48 C 60 54.628906 54.628906 60 48 60 L 16 60 C 9.371094 60 4 54.628906 4 48 L 4 16 C 4 9.371094 9.371094 4 16 4 Z M 16 4 "/>
<path style=" stroke:none;fill-rule:nonzero;fill:rgb(100%,100%,100%);fill-opacity:1;" d="M 46 21 C 46 22.65625 44.65625 24 43 24 C 41.34375 24 40 22.65625 40 21 C 40 19.34375 41.34375 18 43 18 C 44.65625 18 46 19.34375 46 21 Z M 46 21 "/>
<path style=" stroke:none;fill-rule:evenodd;fill:rgb(100%,100%,100%);fill-opacity:1;" d="M 32 42 C 37.523438 42 42 37.523438 42 32 C 42 26.476562 37.523438 22 32 22 C 26.476562 22 22 26.476562 22 32 C 22 37.523438 26.476562 42 32 42 Z M 32 38 C 35.3125 38 38 35.3125 38 32 C 38 28.6875 35.3125 26 32 26 C 28.6875 26 26 28.6875 26 32 C 26 35.3125 28.6875 38 32 38 Z M 32 38 "/>
<path style=" stroke:none;fill-rule:evenodd;fill:rgb(100%,100%,100%);fill-opacity:1;" d="M 12 31.199219 C 12 24.480469 12 21.117188 13.308594 18.550781 C 14.457031 16.292969 16.292969 14.457031 18.550781 13.308594 C 21.117188 12 24.480469 12 31.199219 12 L 32.800781 12 C 39.519531 12 42.882812 12 45.449219 13.308594 C 47.707031 14.457031 49.542969 16.292969 50.691406 18.550781 C 52 21.117188 52 24.480469 52 31.199219 L 52 32.800781 C 52 39.519531 52 42.882812 50.691406 45.449219 C 49.542969 47.707031 47.707031 49.542969 45.449219 50.691406 C 42.882812 52 39.519531 52 32.800781 52 L 31.199219 52 C 24.480469 52 21.117188 52 18.550781 50.691406 C 16.292969 49.542969 14.457031 47.707031 13.308594 45.449219 C 12 42.882812 12 39.519531 12 32.800781 Z M 31.199219 16 L 32.800781 16 C 36.226562 16 38.554688 16.003906 40.355469 16.148438 C 42.109375 16.292969 43.007812 16.554688 43.632812 16.871094 C 45.136719 17.640625 46.359375 18.863281 47.128906 20.367188 C 47.445312 20.992188 47.707031 21.890625 47.851562 23.644531 C 47.996094 25.445312 48 27.773438 48 31.199219 L 48 32.800781 C 48 36.226562 47.996094 38.554688 47.851562 40.355469 C 47.707031 42.109375 47.445312 43.007812 47.128906 43.632812 C 46.359375 45.136719 45.136719 46.359375 43.632812 47.128906 C 43.007812 47.445312 42.109375 47.707031 40.355469 47.851562 C 38.554688 47.996094 36.226562 48 32.800781 48 L 31.199219 48 C 27.773438 48 25.445312 47.996094 23.644531 47.851562 C 21.890625 47.707031 20.992188 47.445312 20.367188 47.128906 C 18.863281 46.359375 17.640625 45.136719 16.871094 43.632812 C 16.554688 43.007812 16.292969 42.109375 16.148438 40.355469 C 16.003906 38.554688 16 36.226562 16 32.800781 L 16 31.199219 C 16 27.773438 16.003906 25.445312 16.148438 23.644531 C 16.292969 21.890625 16.554688 20.992188 16.871094 20.367188 C 17.640625 18.863281 18.863281 17.640625 20.367188 16.871094 C 20.992188 16.554688 21.890625 16.292969 23.644531 16.148438 C 25.445312 16.003906 27.773438 16 31.199219 16 Z M 31.199219 16 "/>
</g>
</svg>
